<svg id="Calque_1" data-name="Calque 1" xmlns="http://www.w3.org/2000/svg" xmlns:xlink="http://www.w3.org/1999/xlink" viewBox="0 0 189.53 106.64"><defs><style>.cls-1{stroke:#18adc2;stroke-miterlimit:10;stroke-width:7px;fill:url(#Dégradé_sans_nom_10);}.cls-2{fill:#18adc2;}.cls-3{fill:#1d1d1b;}</style><linearGradient id="Dégradé_sans_nom_10" x1="117" y1="59.77" x2="157.07" y2="59.77" gradientUnits="userSpaceOnUse"><stop offset="0" stop-color="#fff"/><stop offset="1" stop-color="#312783"/></linearGradient></defs><path d="M190,245.26a44.64,44.64,0,0,1,4.22-8c0-.2-.06-.4-.07-.6-.4-4.38,1.36-8,4.53-10.91.13-.12.26-.21.39-.31a5.68,5.68,0,0,1,2.33-3.93v-29h-8v39l-3.57-6-19.61-33H159.08v56h8.12v-41c.68,1.17,1.19,2,1.52,2.58l1.6,2.67,19.54,32.9C189.9,245.48,189.92,245.37,190,245.26Z" transform="translate(-62.6 -159.68)"/><line class="cls-1" x1="157.07" y1="14.32" x2="117" y2="105.23"/><path class="cls-2" d="M215.75,248.41V239l26.33-12.72-26.29-12.75,0-9.35,36.38,18.13v8Z" transform="translate(-62.6 -159.68)"/><path class="cls-3" d="M104.49,159.68h8v39l3.57-6,19.61-33h11.15v56h-8.12v-41c-.68,1.18-1.19,2-1.52,2.58l-1.6,2.67-21.24,35.77h-9.8Z" transform="translate(-62.6 -159.68)"/><path class="cls-2" d="M99,160.46v9.43L72.65,182.61l26.29,12.75,0,9.35L62.6,186.58v-8Z" transform="translate(-62.6 -159.68)"/><rect class="cls-3" x="86.79" y="48.91" width="7.07" height="7.07"/></svg>