<svg id="Calque_1" data-name="Calque 1" xmlns="http://www.w3.org/2000/svg" xmlns:xlink="http://www.w3.org/1999/xlink" viewBox="0 0 189.53 106.64"><defs><style>.cls-1{fill:#18adc2;}.cls-2{stroke:#1d1d1b;stroke-miterlimit:10;stroke-width:7px;fill:url(#Dégradé_sans_nom_10);}</style><linearGradient id="Dégradé_sans_nom_10" x1="117" y1="59.77" x2="157.07" y2="59.77" gradientUnits="userSpaceOnUse"><stop offset="0" stop-color="#fff"/><stop offset="1" stop-color="#312783"/></linearGradient></defs><path class="cls-1" d="M335,451a4.13,4.13,0,0,1,2.18-2.56,4.91,4.91,0,0,1,1.95-3.64,29.56,29.56,0,0,0,.72-3.71l.21-1.53a3.84,3.84,0,0,1,1.15-2.3V409.13h-8v39q-3.31-5.62-3.57-6l-19.6-33H298.93v56h8.12v-41c.69,1.18,1.19,2,1.52,2.59l1.6,2.66,19.51,32.84a4.54,4.54,0,0,1,3.35-3.33C331.21,456.4,331.87,452.19,335,451Z" transform="translate(-202.45 -376.35)"/><line class="cls-2" x1="157.07" y1="14.32" x2="117" y2="105.23"/><path d="M355.6,465.08v-9.43l26.33-12.72-26.29-12.76,0-9.35L392,439v8Z" transform="translate(-202.45 -376.35)"/><path class="cls-1" d="M244.34,376.35h8v39c2.21-3.75,3.4-5.75,3.57-6l19.6-33h11.16v56h-8.12v-41c-.69,1.17-1.19,2-1.52,2.58l-1.6,2.67-21.25,35.76h-9.8Z" transform="translate(-202.45 -376.35)"/><path d="M238.83,377.12v9.44L212.5,399.27,238.79,412l0,9.35-36.38-18.13v-8Z" transform="translate(-202.45 -376.35)"/><rect class="cls-1" x="86.79" y="48.91" width="7.07" height="7.07"/></svg>