<?xml version="1.0" encoding="utf-8"?>
<!-- Generator: Adobe Illustrator 24.2.0, SVG Export Plug-In . SVG Version: 6.00 Build 0)  -->
<svg version="1.0" id="Calque_1" xmlns="http://www.w3.org/2000/svg" xmlns:xlink="http://www.w3.org/1999/xlink" x="0px" y="0px"
	 width="595.28px" height="841.89px" viewBox="0 0 595.28 841.89" style="enable-background:new 0 0 595.28 841.89;"
	 xml:space="preserve">
<style type="text/css">
	.st0{opacity:0.5;}
	.st1{fill:#FFFFFF;}
</style>
<g>
	<g class="st0">
		<path d="M468.04,676.89c-113.34,0-226.69,0-340.03,0c-17.63-7.45-21.98-14.04-21.98-33.52c-0.01-81.09-0.01-162.19-0.01-243.28
			c0-68.61,0.01-137.21,0-205.82c0-11.91,5.02-20.83,15.66-26.32c2.61-1.34,5.54-2.06,8.33-3.07c89.01,0,178.02,0,267.03,0
			c4.04,2.21,8.82,3.66,12,6.74c24.76,24.01,49.25,48.3,73.73,72.6c4.93,4.89,7.23,10.99,7.23,18.04
			c-0.06,56.98-0.07,113.97-0.08,170.95c-0.01,71.15-0.04,142.29,0.03,213.44c0.01,9.53-2.57,17.9-10.2,23.87
			C476.29,673.23,471.97,674.8,468.04,676.89z M383.27,186.3c-2.5,0-4.3,0-6.11,0c-80.16,0-160.32,0-240.47,0
			c-7.9,0-9.62,1.88-9.62,10.33c0,149.47,0,298.94,0,448.41c0,9.41,1.46,10.85,11.08,10.85c106.66,0,213.31,0,319.97,0
			c9.15,0,10.67-1.54,10.67-10.8c0-122.31-0.01-244.62-0.01-366.92c0-1.96,0-3.91,0-6.44c-2.37,0-4.15,0-5.93,0
			c-22.16,0-44.33,0.02-66.49,0c-9.04-0.01-13.04-4.03-13.06-13.14c-0.03-17.33-0.01-34.66-0.02-51.99
			C383.27,200.11,383.27,193.63,383.27,186.3z M455.11,250.22c-15.9-16.68-32.85-34.46-50.12-52.57c0,17.95,0,35.28,0,52.57
			C422.86,250.22,440.24,250.22,455.11,250.22z"/>
		<path class="st1" d="M468.04,676.89c3.93-2.09,8.25-3.66,11.7-6.36c7.63-5.97,10.21-14.34,10.2-23.87
			c-0.07-71.15-0.04-142.29-0.03-213.44c0.01-56.98,0.01-113.97,0.08-170.95c0.01-7.05-2.3-13.15-7.23-18.04
			c-24.48-24.3-48.97-48.59-73.73-72.6c-3.18-3.09-7.96-4.54-12-6.74c52.3,0,104.61,0,156.96,0c0,170.67,0,341.33,0,512
			C525.34,676.89,496.69,676.89,468.04,676.89z"/>
		<path class="st1" d="M130.01,164.89c-2.78,1.01-5.72,1.72-8.33,3.07c-10.64,5.48-15.66,14.4-15.66,26.32
			c0.01,68.61,0,137.21,0,205.82c0,81.09-0.01,162.19,0.01,243.28c0,19.47,4.36,26.07,21.98,33.52c-28.67,0-57.34,0-86.01,0
			c0-170.67,0-341.33,0-512C71.34,164.89,100.67,164.89,130.01,164.89z"/>
		<path class="st1" d="M383.27,186.3c0,7.33,0,13.81,0,20.29c0,17.33-0.02,34.66,0.02,51.99c0.02,9.12,4.02,13.14,13.06,13.14
			c22.16,0.02,44.33,0.01,66.49,0c1.78,0,3.57,0,5.93,0c0,2.53,0,4.48,0,6.44c0,122.31,0.01,244.62,0.01,366.92
			c0,9.27-1.52,10.8-10.67,10.8c-106.66,0-213.31,0-319.97,0c-9.61,0-11.08-1.44-11.08-10.85c0-149.47,0-298.94,0-448.41
			c0-8.45,1.72-10.33,9.62-10.33c80.16-0.01,160.32,0,240.47,0C378.96,186.3,380.77,186.3,383.27,186.3z M298.14,527.3
			c36.99,0,73.97,0,110.96-0.01c1.99,0,4.02,0,5.97-0.33c4.65-0.79,7.96-4.52,8.43-9.25c0.46-4.56-2.19-9.24-6.6-10.64
			c-2.47-0.79-5.23-0.93-7.86-0.93c-73.97-0.05-147.94-0.04-221.92-0.03c-1.66,0-3.36-0.09-4.99,0.16
			c-5.97,0.95-9.73,5.87-9.1,11.73c0.65,6.06,5.11,9.28,13.14,9.28C223.5,527.31,260.82,527.3,298.14,527.3z M298.19,592.03
			c37.15,0,74.31,0,111.46,0c9.04,0,14.02-3.77,13.95-10.54c-0.07-6.79-5.06-10.52-14.08-10.53c-0.17,0-0.33,0-0.5,0
			c-73.97,0-147.95,0-221.92,0c-1.5,0-3.01-0.08-4.49,0.09c-5.77,0.67-9.74,5.19-9.6,10.83c0.14,5.7,4.25,9.78,10.23,10.11
			c1.16,0.07,2.33,0.03,3.5,0.03C223.89,592.03,261.04,592.03,298.19,592.03z M282.63,464.19c13.2,0.27,25.84-5.01,35.38-14.79
			c5.04-5.16,5.47-11.49,1.1-15.93c-4.46-4.53-10.56-4.2-15.93,0.87c-15.25,14.4-36.38,10.47-45.5-8.47
			c-9.52-19.76,1.14-43.71,21.26-47.5c9.65-1.82,17.5,1.95,24.47,8.44c4.59,4.27,10.75,4.06,14.82-0.02
			c4.12-4.13,4.13-10.78-0.37-15.22c-11.77-11.62-25.89-16.9-42.34-13.97c-22.97,4.09-38.95,21.51-42.02,46.54
			C229.63,435.92,252.88,463.83,282.63,464.19z M379.76,425.43c-8.15-19.96-15.78-38.74-23.5-57.49c-2.82-6.85-8.33-9.61-14.14-7.31
			c-6.09,2.41-8.2,8.24-5.31,15.36c10.86,26.81,21.8,53.59,32.67,80.4c1.93,4.75,5.07,7.8,10.46,7.75c5.39-0.05,8.39-3.15,10.3-7.93
			c10.72-26.87,21.55-53.69,32.27-80.55c2.7-6.77,0.51-12.56-5.37-14.97c-5.82-2.39-11.43,0.37-14.21,7.13
			c-3.04,7.38-5.95,14.81-8.93,22.21C389.43,401.41,384.85,412.8,379.76,425.43z"/>
		<path class="st1" d="M455.11,250.22c-14.87,0-32.25,0-50.12,0c0-17.29,0-34.62,0-52.57C422.26,215.77,439.2,233.54,455.11,250.22z
			"/>
		<path d="M298.14,527.3c-37.32,0-74.64,0.01-111.96-0.01c-8.02,0-12.49-3.22-13.14-9.28c-0.63-5.86,3.13-10.78,9.1-11.73
			c1.63-0.26,3.32-0.16,4.99-0.16c73.97-0.01,147.94-0.01,221.92,0.03c2.63,0,5.39,0.14,7.86,0.93c4.41,1.4,7.06,6.07,6.6,10.64
			c-0.48,4.72-3.78,8.46-8.43,9.25c-1.95,0.33-3.98,0.33-5.97,0.33C372.11,527.3,335.13,527.3,298.14,527.3z"/>
		<path d="M298.19,592.03c-37.15,0-74.31,0-111.46,0c-1.17,0-2.34,0.03-3.5-0.03c-5.98-0.34-10.09-4.41-10.23-10.11
			c-0.14-5.64,3.83-10.16,9.6-10.83c1.48-0.17,3-0.09,4.49-0.09c73.97,0,147.95,0,221.92,0c0.17,0,0.33,0,0.5,0
			c9.03,0.02,14.01,3.75,14.08,10.53c0.07,6.77-4.91,10.54-13.95,10.54C372.5,592.03,335.35,592.03,298.19,592.03z"/>
		<path d="M282.63,464.19c-29.75-0.36-53-28.27-49.11-60.05c3.07-25.02,19.05-42.45,42.02-46.54c16.45-2.93,30.57,2.35,42.34,13.97
			c4.5,4.44,4.49,11.09,0.37,15.22c-4.06,4.08-10.23,4.29-14.82,0.02c-6.97-6.5-14.82-10.26-24.47-8.44
			c-20.12,3.78-30.78,27.73-21.26,47.5c9.12,18.94,30.25,22.87,45.5,8.47c5.36-5.07,11.47-5.4,15.93-0.87
			c4.37,4.44,3.93,10.77-1.1,15.93C308.48,459.18,295.84,464.46,282.63,464.19z"/>
		<path d="M379.76,425.43c5.09-12.63,9.67-24.01,14.25-35.4c2.98-7.4,5.89-14.83,8.93-22.21c2.78-6.76,8.39-9.51,14.21-7.13
			c5.88,2.41,8.07,8.21,5.37,14.97c-10.72,26.86-21.55,53.69-32.27,80.55c-1.91,4.78-4.91,7.88-10.3,7.93
			c-5.39,0.05-8.53-3-10.46-7.75c-10.88-26.81-21.82-53.59-32.67-80.4c-2.88-7.12-0.78-12.95,5.31-15.36
			c5.81-2.3,11.32,0.46,14.14,7.31C363.98,386.69,371.61,405.47,379.76,425.43z"/>
	</g>
	<g>
	</g>
</g>
</svg>
